<?xml version="1.0" encoding="iso-8859-1"?>
<!DOCTYPE svg PUBLIC "-//W3C//DTD SVG 1.1//EN" "http://www.w3.org/Graphics/SVG/1.1/DTD/svg11.dtd">
<svg 
 version="1.1" xmlns="http://www.w3.org/2000/svg" xmlns:xlink="http://www.w3.org/1999/xlink" x="0px" y="0px" width="512px"
	 height="512px" viewBox="0 0 512 512" style="enable-background:new 0 0 512 512;" xml:space="preserve"
><g id="5151e0c8492e5103c096af88a5017012"><g></g><g fill="#c4c4c4"><path d="M405.042,0.5H106.958c-35.131,0-63.875,28.744-63.875,63.875v298.083v85.167c0,35.131,28.744,63.875,63.875,63.875
			h298.083c35.131,0,63.875-28.744,63.875-63.875v-85.167V64.375C468.917,29.244,440.173,0.5,405.042,0.5z M64.375,64.375
			c0-23.481,19.104-42.583,42.583-42.583h298.083c23.479,0,42.583,19.103,42.583,42.583v298.083
			c0,23.479-19.104,42.584-42.583,42.584H106.958c-23.479,0-42.583-19.104-42.583-42.584V64.375z M257.276,310.889h-27.85
			l38.325-80.48l-0.512-0.511c-5.281,5.111-11.752,7.664-19.416,7.664c-22.144,0-33.214-18.651-33.214-55.953
			c0-7.323,0.166-13.499,0.507-18.526c0.341-5.02,1.281-10.771,2.811-17.246c1.535-6.471,3.705-11.665,6.517-15.586
			c2.811-3.917,6.853-7.282,12.134-10.093c5.281-2.812,11.669-4.213,19.163-4.213c6.3,0,11.839,0.853,16.609,2.553
			c4.766,1.705,8.6,4.304,11.498,7.793c2.895,3.493,5.323,7.152,7.281,10.987c1.955,3.83,3.36,8.475,4.217,13.923
			c0.849,5.456,1.406,10.35,1.659,14.692c0.254,4.346,0.383,9.498,0.383,15.457c0,19.42-2.258,36.708-6.77,51.865
			c-4.517,15.166-11.881,33.389-22.103,54.68L257.276,310.889z M255.742,214.564c10.563,0,15.757-12.176,15.586-36.537
			c0-0.848,0-1.443,0-1.788c0-24.864-5.198-37.302-15.586-37.302c-10.051,0-15.075,12.945-15.075,38.836
			c0,3.576,0.042,6.388,0.129,8.434c0.083,2.042,0.383,5.106,0.894,9.194c0.512,4.088,1.235,7.328,2.171,9.71
			c0.936,2.387,2.429,4.558,4.475,6.516C250.377,213.587,252.844,214.564,255.742,214.564z"></path></g></g></svg>