<?xml version="1.0" encoding="iso-8859-1"?>
<!DOCTYPE svg PUBLIC "-//W3C//DTD SVG 1.1//EN" "http://www.w3.org/Graphics/SVG/1.1/DTD/svg11.dtd">
<svg 
 version="1.1" xmlns="http://www.w3.org/2000/svg" xmlns:xlink="http://www.w3.org/1999/xlink" x="0px" y="0px" width="512px"
	 height="512px" viewBox="0 0 512 512" style="enable-background:new 0 0 512 512;" xml:space="preserve"
><g id="5151e0c8492e5103c096af88a5015ae2"><g></g><g fill="#c4c4c4"><path d="M405.042,0.5H106.958c-35.131,0-63.875,28.744-63.875,63.875v298.083v85.167c0,35.131,28.744,63.875,63.875,63.875
			h298.083c35.131,0,63.875-28.744,63.875-63.875v-85.167V64.375C468.917,29.244,440.173,0.5,405.042,0.5z M64.375,64.375
			c0-23.481,19.104-42.583,42.583-42.583h298.083c23.479,0,42.583,19.103,42.583,42.583v298.083
			c0,23.479-19.104,42.584-42.583,42.584H106.958c-23.479,0-42.583-19.104-42.583-42.584V64.375z M234.155,115.943h61.321v22.229
			h-41.647l-6.134,48.544c16.692-0.678,29.255,3.921,37.688,13.798c8.43,9.881,12.646,23.338,12.646,40.369
			c0,12.775-1.576,24.145-4.729,34.108c-3.152,9.968-8.94,18.443-17.374,25.421c-8.43,6.986-19.121,10.479-32.063,10.479
			c-8.521,0-18.484-2.641-29.896-7.922l6.646-22.743c9.535,5.115,17.029,7.668,22.481,7.668c10.051,0,17.375-4.475,21.973-13.415
			c4.6-8.94,6.899-18.778,6.899-29.509c0-25.207-11.157-37.813-33.472-37.813c-4.258,0-9.452,0.765-15.582,2.299L234.155,115.943z"></path></g></g></svg>