<?xml version="1.0" encoding="iso-8859-1"?>
<!DOCTYPE svg PUBLIC "-//W3C//DTD SVG 1.1//EN" "http://www.w3.org/Graphics/SVG/1.1/DTD/svg11.dtd">
<svg 
 version="1.1" xmlns="http://www.w3.org/2000/svg" xmlns:xlink="http://www.w3.org/1999/xlink" x="0px" y="0px" width="512px"
	 height="512px" viewBox="0 0 512 512" style="enable-background:new 0 0 512 512;" xml:space="preserve"
><g id="5151e0c8492e5103c096af88a5014a53"><g></g><g fill="#c4c4c4"><path d="M405.042,0.5H106.958c-35.131,0-63.875,28.744-63.875,63.875v298.083v85.167c0,35.131,28.744,63.875,63.875,63.875
			h298.083c35.131,0,63.875-28.744,63.875-63.875v-85.167V64.375C468.917,29.244,440.173,0.5,405.042,0.5z M64.375,64.375
			c0-23.481,19.104-42.583,42.583-42.583h298.083c23.479,0,42.583,19.103,42.583,42.583v298.083
			c0,23.479-19.104,42.584-42.583,42.584H106.958c-23.479,0-42.583-19.104-42.583-42.584V64.375z M215.247,180.839v-6.899
			c0-8.854,0.424-16.264,1.279-22.228c0.85-5.959,2.595-11.918,5.237-17.886c2.639-5.959,6.854-10.43,12.646-13.411
			c5.789-2.978,13.116-4.471,21.974-4.471c15.328,0,26.314,4,32.96,12.006c6.642,8.009,9.964,19.844,9.964,35.514
			c0,21.296-11.074,52.635-33.218,94.024l-16.35,31.173h47.779v22.228h-84.826l46.756-98.877
			c9.197-20.78,13.796-37.473,13.796-50.077c0-6.3-1.318-11.71-3.963-16.227c-2.641-4.512-7.023-6.77-13.155-6.77
			c-2.387,0-4.471,0.511-6.259,1.534c-1.79,1.023-3.194,2.554-4.217,4.6c-1.021,2.042-1.875,3.959-2.555,5.747
			c-0.682,1.788-1.15,4.175-1.406,7.153c-0.253,2.986-0.426,5.24-0.509,6.774c-0.089,1.53-0.089,3.701,0,6.512
			c0.083,2.812,0.127,4.304,0.127,4.471v5.111H215.247z"></path></g></g></svg>