<?xml version="1.0" encoding="iso-8859-1"?>
<!DOCTYPE svg PUBLIC "-//W3C//DTD SVG 1.1//EN" "http://www.w3.org/Graphics/SVG/1.1/DTD/svg11.dtd">
<svg 
 version="1.1" xmlns="http://www.w3.org/2000/svg" xmlns:xlink="http://www.w3.org/1999/xlink" x="0px" y="0px" width="512px"
	 height="512px" viewBox="0 0 512 512" style="enable-background:new 0 0 512 512;" xml:space="preserve"
><g id="5151e0c8492e5103c096af88a5015ecf"><g></g><g fill="#c4c4c4"><path d="M405.042,0.5H106.958c-35.131,0-63.875,28.744-63.875,63.875v298.083v85.167c0,35.131,28.744,63.875,63.875,63.875
			h298.083c35.131,0,63.875-28.744,63.875-63.875v-85.167V64.375C468.917,29.244,440.173,0.5,405.042,0.5z M64.375,64.375
			c0-23.481,19.104-42.583,42.583-42.583h298.083c23.479,0,42.583,19.103,42.583,42.583v298.083
			c0,23.479-19.104,42.584-42.583,42.584H106.958c-23.479,0-42.583-19.104-42.583-42.584V64.375z M253.571,115.943h27.596
			l-37.56,82.272l0.512,0.511c6.3-5.789,12.858-8.687,19.674-8.687c6.13,0,11.369,1.406,15.711,4.215
			c4.346,2.811,7.668,6.175,9.964,10.092c2.304,3.919,4.092,8.904,5.369,14.946c1.276,6.049,2.041,11.287,2.299,15.715
			c0.254,4.431,0.383,9.625,0.383,15.584c0,8.688-0.428,16.096-1.28,22.229c-0.849,6.134-2.596,12.351-5.236,18.651
			c-2.641,6.304-6.857,11.111-12.646,14.438c-5.793,3.319-13.203,4.982-22.229,4.982c-7.325,0-13.63-1.368-18.907-4.092
			c-5.281-2.72-9.326-6.088-12.137-10.089c-2.809-4-5.069-9.111-6.77-15.332c-1.705-6.218-2.77-11.965-3.194-17.246
			c-0.426-5.277-0.638-11.409-0.638-18.395c0-11.754,0.765-22.741,2.299-32.96c1.533-10.22,4.171-20.568,7.92-31.043
			c3.745-10.475,7.238-19.375,10.476-26.7c3.233-7.321,7.92-17.375,14.054-30.149C251.101,120.971,252.55,117.989,253.571,115.943z
			 M271.457,250.848c0-3.406,0-5.789,0-7.155c0-1.36-0.129-3.916-0.383-7.664c-0.253-3.745-0.686-6.644-1.276-8.688
			c-0.599-2.044-1.451-4.343-2.553-6.899c-1.115-2.553-2.558-4.427-4.346-5.62c-1.793-1.189-3.962-1.788-6.517-1.788
			c-1.364,0-2.427,0.043-3.194,0.127c-0.765,0.089-2.088,0.767-3.959,2.044c-1.877,1.278-3.323,3.067-4.344,5.366
			c-1.023,2.3-2.004,6.049-2.94,11.243c-0.938,5.196-1.403,11.457-1.403,18.778c0,24.87,5.277,37.304,15.84,37.304
			C266.43,287.896,271.457,275.545,271.457,250.848z"></path></g></g></svg>