<?xml version="1.0" encoding="iso-8859-1"?>
<!DOCTYPE svg PUBLIC "-//W3C//DTD SVG 1.1//EN" "http://www.w3.org/Graphics/SVG/1.1/DTD/svg11.dtd">
<svg 
 version="1.1" xmlns="http://www.w3.org/2000/svg" xmlns:xlink="http://www.w3.org/1999/xlink" x="0px" y="0px" width="512px"
	 height="512px" viewBox="0 0 512 512" style="enable-background:new 0 0 512 512;" xml:space="preserve"
><g id="5151e0c8492e5103c096af88a50154dc"><g></g><g fill="#c4c4c4"><path d="M405.042,0.5H106.958c-35.131,0-63.875,28.744-63.875,63.875v298.083v85.167c0,35.131,28.744,63.875,63.875,63.875
			h298.083c35.131,0,63.875-28.744,63.875-63.875v-85.167V64.375C468.917,29.244,440.173,0.5,405.042,0.5z M64.375,64.375
			c0-23.481,19.104-42.583,42.583-42.583h298.083c23.479,0,42.583,19.103,42.583,42.583v298.083
			c0,23.479-19.104,42.584-42.583,42.584H106.958c-23.479,0-42.583-19.104-42.583-42.584V64.375z M288.32,117.093v120.853h12.264
			v18.907H288.32v52.888h-25.039v-52.888h-51.865v-21.974l51.865-117.786H288.32z M263.281,237.946v-81.761h-0.511l-31.173,81.761
			H263.281z"></path></g></g></svg>