<?xml version="1.0" encoding="iso-8859-1"?>
<!DOCTYPE svg PUBLIC "-//W3C//DTD SVG 1.1//EN" "http://www.w3.org/Graphics/SVG/1.1/DTD/svg11.dtd">
<svg 
 version="1.1" xmlns="http://www.w3.org/2000/svg" xmlns:xlink="http://www.w3.org/1999/xlink" x="0px" y="0px" width="512px"
	 height="512px" viewBox="0 0 512 512" style="enable-background:new 0 0 512 512;" xml:space="preserve"
><g id="5151e0c8492e5103c096af88a5015220"><g></g><g fill="#c4c4c4"><path d="M405.042,0.5H106.958c-35.131,0-63.875,28.744-63.875,63.875v298.083v85.167c0,35.131,28.744,63.875,63.875,63.875
			h298.083c35.131,0,63.875-28.744,63.875-63.875v-85.167V64.375C468.917,29.244,440.173,0.5,405.042,0.5z M64.375,64.375
			c0-23.481,19.104-42.583,42.583-42.583h298.083c23.479,0,42.583,19.103,42.583,42.583v298.083
			c0,23.479-19.104,42.584-42.583,42.584H106.958c-23.479,0-42.583-19.104-42.583-42.584V64.375z M249.612,221.081h-7.408v-22.997
			h3.065c10.561,0,17.584-2.125,21.078-6.387c3.493-4.254,5.239-11.918,5.239-22.993c0-3.917-0.087-7.111-0.258-9.581
			c-0.17-2.466-0.682-5.623-1.53-9.453c-0.856-3.834-2.387-6.774-4.6-8.816c-2.216-2.046-5.025-3.065-8.431-3.065
			c-10.053,0-15.075,8.346-15.075,25.039v5.876h-24.529v-1.788c0-8.176,0.424-15.033,1.279-20.568
			c0.85-5.535,2.555-10.9,5.108-16.098c2.556-5.194,6.517-9.07,11.881-11.624c5.366-2.557,12.22-3.834,20.568-3.834
			c14.987,0,25.425,4.387,31.297,13.158c5.881,8.774,8.816,20.996,8.816,36.666c0,5.623-0.217,10.347-0.641,14.181
			c-0.424,3.83-1.272,8.093-2.554,12.775c-1.276,4.687-3.451,8.559-6.512,11.623c-3.069,3.069-6.986,5.369-11.756,6.899v0.511
			c5.11,1.364,9.327,3.493,12.646,6.388c3.323,2.898,5.752,6.558,7.286,10.987c1.53,4.433,2.553,8.687,3.064,12.775
			s0.766,8.857,0.766,14.31c0,37.984-14.734,56.976-44.201,56.976c-27.083,0-40.625-14.904-40.625-44.712v-5.876h24.529v6.129
			c0,6.134,1.277,11.245,3.832,15.333c2.556,4.088,6.644,6.13,12.264,6.13c3.405,0,6.346-0.895,8.816-2.683
			c2.466-1.788,4.3-3.834,5.489-6.134c1.188-2.3,2.087-5.364,2.686-9.194c0.595-3.834,0.932-6.857,1.023-9.074
			c0.083-2.208,0.125-5.189,0.125-8.94c0-9.877-1.576-17.757-4.725-23.633C264.471,223.509,258.468,220.74,249.612,221.081z"></path></g></g></svg>