<?xml version="1.0" encoding="iso-8859-1"?>
<!DOCTYPE svg PUBLIC "-//W3C//DTD SVG 1.1//EN" "http://www.w3.org/Graphics/SVG/1.1/DTD/svg11.dtd">
<svg 
 version="1.1" xmlns="http://www.w3.org/2000/svg" xmlns:xlink="http://www.w3.org/1999/xlink" x="0px" y="0px" width="512px"
	 height="512px" viewBox="0 0 512 512" style="enable-background:new 0 0 512 512;" xml:space="preserve"
><g id="5151e0c8492e5103c096af88a5016c65"><g></g><g fill="#c4c4c4"><path d="M405.042,0.5H106.958c-35.131,0-63.875,28.744-63.875,63.875v298.083v85.167c0,35.131,28.744,63.875,63.875,63.875
			h298.083c35.131,0,63.875-28.744,63.875-63.875v-85.167V64.375C468.917,29.244,440.173,0.5,405.042,0.5z M64.375,64.375
			c0-23.481,19.104-42.583,42.583-42.583h298.083c23.479,0,42.583,19.103,42.583,42.583v298.083
			c0,23.479-19.104,42.584-42.583,42.584H106.958c-23.479,0-42.583-19.104-42.583-42.584V64.375z M237.091,205.495v-0.511
			c-14.139-4.6-21.205-18.905-21.205-42.925c0-14.816,2.849-26.398,8.559-34.744c5.705-8.346,15.624-12.521,29.767-12.521
			c15.328,0,26.099,3.834,32.32,11.499c6.217,7.664,9.327,19.591,9.327,35.767c0,24.02-6.986,38.417-20.955,43.183v0.253
			c15.162,3.751,22.743,19.25,22.743,46.5c0,8.351-0.512,15.674-1.534,21.974c-1.023,6.305-2.898,12.563-5.622,18.78
			c-2.725,6.221-6.986,10.986-12.775,14.31c-5.793,3.318-13.028,4.981-21.716,4.981c-27.767,0-41.647-18.821-41.647-56.468
			c0-6.296,0.166-11.453,0.511-15.458c0.341-4,1.152-8.725,2.429-14.181c1.277-5.447,3.576-9.876,6.899-13.282
			C227.51,209.246,231.81,206.863,237.091,205.495z M255.742,289.044c10.563,0,15.844-10.729,15.844-32.191
			c0-4.77-0.087-8.471-0.258-11.116c-0.17-2.641-0.682-6.471-1.53-11.499c-0.856-5.019-2.475-8.812-4.857-11.369
			c-2.387-2.554-5.451-3.83-9.198-3.83c-2.553,0-4.77,0.599-6.641,1.788c-1.875,1.193-3.364,3.152-4.471,5.876
			c-1.11,2.724-1.962,4.982-2.557,6.77c-0.599,1.788-1.019,4.729-1.277,8.816c-0.253,4.087-0.382,6.599-0.382,7.535
			c0,0.94,0,3.281,0,7.028C240.414,278.314,245.525,289.044,255.742,289.044z M256,193.996c2.895,0,5.364-1.06,7.41-3.193
			c2.042-2.125,3.489-4.895,4.342-8.301c0.853-3.406,1.447-6.516,1.788-9.327c0.341-2.812,0.512-5.66,0.512-8.559
			c0-17.886-4.687-26.827-14.052-26.827c-9.544,0-14.31,8.941-14.31,26.827c0,4.088,0.258,8.047,0.77,11.881
			c0.507,3.83,1.913,7.71,4.212,11.623C248.972,192.042,252.079,193.996,256,193.996z"></path></g></g></svg>