<?xml version="1.0" encoding="iso-8859-1"?>
<!DOCTYPE svg PUBLIC "-//W3C//DTD SVG 1.1//EN" "http://www.w3.org/Graphics/SVG/1.1/DTD/svg11.dtd">
<svg 
 version="1.1" xmlns="http://www.w3.org/2000/svg" xmlns:xlink="http://www.w3.org/1999/xlink" x="0px" y="0px" width="512px"
	 height="512px" viewBox="0 0 512 512" style="enable-background:new 0 0 512 512;" xml:space="preserve"
><g id="5151e0c8492e5103c096af88a50173cd"><g></g><g fill="#c4c4c4"><path d="M405.042,0.5H106.958c-35.131,0-63.875,28.744-63.875,63.875v298.083v85.167c0,35.131,28.744,63.875,63.875,63.875
			h298.083c35.131,0,63.875-28.744,63.875-63.875v-85.167V64.375C468.917,29.244,440.173,0.5,405.042,0.5z M64.375,64.375
			c0-23.481,19.104-42.583,42.583-42.583h298.083c23.479,0,42.583,19.103,42.583,42.583v298.083
			c0,23.479-19.104,42.584-42.583,42.584H106.958c-23.479,0-42.583-19.104-42.583-42.584V64.375z M239.648,118.627
			c4.766-2.557,10.218-3.834,16.352-3.834c6.13,0,11.581,1.277,16.352,3.834c4.766,2.554,8.642,5.581,11.627,9.07
			c2.978,3.493,5.531,8.305,7.664,14.435c2.125,6.134,3.705,11.54,4.725,16.227c1.022,4.687,1.788,10.816,2.299,18.393
			c0.512,7.581,0.808,13.203,0.895,16.863c0.087,3.668,0.129,8.903,0.129,15.715c0,1.875,0,3.235,0,4.088s0,2.217,0,4.088
			c0,6.641-0.042,11.881-0.129,15.711c-0.087,3.834-0.383,9.457-0.895,16.867c-0.511,7.406-1.276,13.499-2.299,18.264
			c-1.02,4.774-2.6,10.222-4.725,16.355c-2.133,6.13-4.687,10.945-7.664,14.435c-2.985,3.493-6.861,6.516-11.627,9.069
			c-4.771,2.558-10.222,3.834-16.352,3.834c-6.134,0-11.585-1.276-16.352-3.834c-4.77-2.554-8.649-5.576-11.627-9.069
			c-2.982-3.489-5.535-8.305-7.664-14.435c-2.133-6.134-3.706-11.54-4.729-16.227c-1.019-4.683-1.788-10.813-2.3-18.393
			c-0.507-7.581-0.807-13.199-0.894-16.867c-0.087-3.659-0.125-8.895-0.125-15.711c0-1.871,0-3.235,0-4.088s0-2.212,0-4.088
			c0-6.645,0.038-11.881,0.125-15.715c0.087-3.83,0.387-9.452,0.894-16.863c0.512-7.411,1.281-13.499,2.3-18.269
			c1.023-4.766,2.595-10.217,4.729-16.351c2.129-6.13,4.682-10.941,7.664-14.435C230.999,124.208,234.879,121.181,239.648,118.627z
			 M274.269,242.543c0.254-7.664,0.383-17.375,0.383-29.126s-0.129-21.462-0.383-29.126c-0.258-7.665-0.981-15.416-2.171-23.25
			c-1.193-7.834-3.11-13.669-5.751-17.503c-2.641-3.834-6.093-5.747-10.347-5.747c-4.258,0-7.71,1.913-10.346,5.747
			c-2.645,3.834-4.562,9.669-5.751,17.503c-1.193,7.834-1.917,15.586-2.171,23.25c-0.258,7.664-0.382,17.374-0.382,29.126
			s0.125,21.462,0.382,29.126c0.254,7.664,0.978,15.42,2.171,23.25c1.189,7.839,3.106,13.67,5.751,17.504
			c2.636,3.83,6.088,5.747,10.346,5.747c4.254,0,7.706-1.917,10.347-5.747c2.641-3.834,4.558-9.665,5.751-17.504
			C273.287,257.963,274.011,250.207,274.269,242.543z"></path></g></g></svg>